<?xml version="1.0" standalone="no"?>
<!DOCTYPE svg PUBLIC "-//W3C//DTD SVG 20010904//EN"
 "http://www.w3.org/TR/2001/REC-SVG-20010904/DTD/svg10.dtd">
<svg version="1.0" xmlns="http://www.w3.org/2000/svg"
 width="1182.000000pt" height="1182.000000pt" viewBox="0 0 1182.000000 1182.000000"
 preserveAspectRatio="xMidYMid meet">
<metadata>
Created by potrace 1.14, written by Peter Selinger 2001-2017
</metadata>
<g transform="translate(0.000000,1182.000000) scale(0.100000,-0.100000)"
fill="#000000" stroke="none">
<path d="M3389 10480 c-85 -22 -161 -64 -221 -120 -64 -61 -83 -90 -197 -305
-18 -33 -40 -73 -50 -90 -10 -16 -31 -55 -48 -85 -16 -30 -44 -79 -62 -108
-17 -29 -31 -56 -31 -59 0 -3 -27 -52 -60 -109 -33 -56 -64 -113 -70 -125 -6
-13 -28 -55 -51 -94 -22 -38 -46 -83 -55 -100 -8 -16 -19 -37 -24 -45 -22 -35
-130 -229 -130 -234 0 -2 -24 -46 -53 -98 -30 -51 -69 -120 -86 -153 -37 -67
-122 -221 -186 -335 -23 -41 -62 -111 -85 -155 -24 -44 -48 -87 -54 -95 -6 -8
-25 -42 -41 -75 -17 -33 -33 -61 -37 -63 -5 -2 -8 -8 -8 -13 0 -6 -26 -56 -59
-112 -32 -56 -72 -127 -88 -157 -17 -30 -42 -75 -55 -100 -14 -25 -107 -193
-208 -375 -100 -181 -215 -388 -255 -460 -76 -136 -175 -314 -222 -401 -201
-366 -204 -373 -215 -438 -16 -96 1 -187 54 -284 91 -169 157 -290 234 -427
24 -44 61 -111 82 -149 20 -38 45 -83 54 -100 21 -36 18 -60 -12 -136 -12 -30
-30 -77 -40 -105 -10 -27 -28 -75 -40 -105 -12 -30 -35 -91 -51 -135 -16 -44
-34 -89 -39 -100 -5 -11 -33 -81 -61 -155 -29 -74 -60 -157 -71 -185 -11 -27
-28 -72 -37 -100 -10 -27 -30 -80 -45 -118 -14 -37 -38 -97 -52 -135 -14 -37
-32 -81 -40 -99 -8 -17 -14 -37 -14 -45 0 -8 -4 -18 -8 -24 -5 -5 -42 -97 -81
-204 -40 -107 -77 -204 -81 -215 -19 -43 -42 -102 -57 -145 -9 -25 -26 -57
-38 -72 -12 -15 -26 -44 -30 -64 -3 -21 -17 -59 -30 -84 -13 -25 -26 -62 -30
-81 -3 -19 -19 -57 -35 -84 -44 -77 -89 -173 -104 -225 -8 -26 -21 -61 -30
-78 -9 -17 -16 -36 -16 -42 0 -6 69 -10 208 -10 148 0 218 -4 247 -14 51 -17
317 -15 323 2 3 9 231 12 898 12 843 0 895 -1 901 -18 4 -9 29 -55 56 -102 27
-47 53 -94 59 -105 5 -11 14 -29 21 -40 11 -18 61 -109 119 -215 160 -290 212
-358 318 -406 104 -48 -107 -44 2545 -44 2666 0 2439 -5 2561 51 52 24 133
103 178 174 20 30 36 58 36 61 0 3 27 52 60 109 33 57 60 106 60 108 0 3 26
52 59 109 32 56 86 154 120 216 l63 112 816 0 c606 0 824 -3 849 -12 25 -9 56
-9 135 0 57 7 194 15 305 18 225 6 257 1 343 -56 24 -16 46 -28 48 -26 5 6
-93 141 -149 206 -58 69 -99 148 -99 195 0 40 -3 44 -124 148 -40 36 -76 78
-91 107 -14 27 -60 98 -102 159 -43 60 -115 163 -160 228 -159 228 -293 419
-385 551 -51 73 -125 179 -165 235 -39 56 -85 121 -102 144 -17 23 -31 48 -31
55 0 7 12 33 26 58 14 25 44 79 66 120 63 115 186 338 228 410 20 36 56 101
80 145 24 44 62 114 85 155 23 41 57 102 75 135 18 33 63 114 100 180 155 277
179 328 189 401 13 93 0 186 -36 260 -16 32 -110 203 -208 379 -98 176 -191
345 -208 375 -16 30 -62 114 -102 185 -40 72 -141 253 -224 403 l-151 273 340
392 c186 216 354 414 372 442 18 27 67 84 108 125 41 41 89 91 106 110 120
136 196 225 242 282 30 36 81 88 115 115 34 27 89 80 122 117 60 68 127 136
208 211 78 73 145 212 105 216 -7 1 -647 2 -1423 3 l-1409 1 -65 115 c-35 63
-85 153 -111 200 -26 47 -62 112 -80 145 -95 174 -185 249 -352 294 -78 21
-81 21 -2430 20 -2190 -1 -2358 -3 -2419 -19z m4582 -737 c8 -16 37 -67 66
-114 28 -48 66 -115 83 -150 17 -35 40 -77 50 -94 11 -16 25 -41 32 -55 27
-56 174 -307 192 -327 24 -28 47 -29 71 -3 15 17 30 20 99 19 70 -1 78 -2 56
-12 -14 -7 -40 -22 -57 -34 -31 -23 -34 -23 -454 -25 l-424 -3 -3 -26 c-3 -25
11 -50 190 -327 10 -15 25 -40 34 -57 9 -16 21 -33 27 -36 5 -4 8 -11 6 -17
-2 -6 -74 -92 -159 -192 -85 -100 -186 -219 -224 -264 -69 -81 -90 -106 -178
-207 -26 -30 -109 -126 -184 -214 -75 -88 -245 -286 -377 -440 -132 -154 -260
-304 -286 -334 -25 -30 -77 -90 -116 -135 l-70 -80 -3 934 -2 934 80 123 c44
68 80 126 80 128 0 2 23 38 51 80 35 54 49 84 47 103 l-3 27 -910 3 c-586 1
-913 6 -919 12 -6 6 -280 10 -773 10 -529 0 -763 3 -763 11 0 5 25 52 55 103
30 51 58 102 62 112 4 11 40 76 80 146 40 70 73 129 73 132 0 2 20 39 45 81
25 42 61 107 80 146 l35 69 2148 0 2149 0 14 -27z m2137 -784 c-29 -33 -65
-77 -81 -97 -15 -20 -31 -39 -36 -42 -5 -3 -57 -61 -116 -130 -59 -69 -117
-136 -129 -150 -12 -14 -53 -61 -90 -105 -38 -44 -79 -89 -90 -100 -25 -24
-97 -68 -102 -62 -4 4 109 134 240 277 23 25 50 57 62 73 12 15 55 64 96 110
106 115 148 167 148 181 0 35 -11 36 -692 36 -528 0 -668 3 -668 13 0 6 3 22
6 35 l6 22 750 0 750 0 -54 -61z m-6900 -96 c6 -16 13 -45 17 -65 3 -21 10
-38 15 -38 4 0 11 -15 15 -32 4 -18 13 -46 20 -63 7 -16 19 -48 25 -70 7 -22
17 -45 22 -52 13 -16 13 -69 1 -85 -6 -7 -16 -31 -23 -53 -6 -22 -18 -54 -26
-72 -8 -17 -17 -45 -20 -62 -4 -17 -11 -34 -15 -37 -5 -3 -9 -13 -9 -22 0 -10
-9 -35 -20 -57 -11 -22 -20 -44 -20 -50 0 -5 -6 -21 -13 -35 -7 -14 -19 -47
-27 -75 -7 -27 -16 -54 -20 -60 -4 -5 -11 -21 -15 -35 -4 -14 -13 -38 -20 -55
-7 -16 -25 -66 -41 -110 -15 -44 -31 -84 -34 -90 -4 -5 -13 -28 -19 -50 -7
-22 -16 -49 -21 -60 -5 -11 -14 -38 -21 -60 -6 -22 -15 -44 -19 -50 -4 -5 -13
-26 -18 -45 -13 -43 -40 -118 -51 -145 -5 -11 -14 -36 -21 -55 -7 -19 -18 -48
-25 -65 -7 -16 -16 -45 -20 -62 -4 -18 -11 -33 -16 -33 -5 0 -9 -9 -9 -21 0
-11 -9 -39 -19 -62 -11 -24 -23 -56 -27 -72 -4 -17 -13 -39 -20 -50 -8 -11
-14 -28 -14 -38 0 -10 -9 -38 -20 -63 -11 -24 -23 -58 -27 -74 -3 -17 -9 -30
-14 -30 -4 0 -11 -17 -15 -37 -4 -21 -13 -47 -20 -58 -8 -11 -14 -29 -14 -40
0 -11 -6 -29 -14 -40 -8 -11 -20 -40 -27 -65 -7 -25 -16 -50 -20 -55 -4 -6
-13 -33 -19 -60 -6 -27 -15 -52 -19 -55 -4 -3 -20 -41 -35 -85 -16 -44 -35
-94 -42 -112 -8 -17 -14 -35 -14 -40 0 -4 -6 -19 -13 -33 -7 -14 -19 -47 -27
-75 -8 -27 -20 -61 -27 -75 -7 -14 -13 -35 -13 -46 0 -12 -7 -27 -15 -34 -8
-7 -15 -20 -15 -29 0 -9 -6 -27 -13 -41 -7 -14 -19 -45 -26 -70 -8 -25 -22
-63 -32 -86 -11 -22 -19 -48 -19 -56 0 -9 -3 -18 -7 -20 -5 -1 -21 -43 -38
-93 -16 -49 -35 -99 -42 -110 -7 -11 -13 -26 -13 -35 0 -8 -6 -26 -13 -40 -7
-14 -19 -47 -26 -75 -8 -27 -26 -78 -42 -113 -16 -34 -29 -68 -29 -75 0 -6 -6
-24 -14 -38 -7 -14 -16 -38 -20 -54 -4 -16 -16 -48 -27 -72 -10 -23 -19 -47
-19 -53 0 -7 -6 -26 -14 -43 -7 -18 -26 -66 -41 -107 -15 -41 -31 -84 -36 -95
-5 -11 -24 -63 -44 -115 -19 -52 -52 -142 -73 -200 -22 -58 -90 -242 -152
-410 -61 -168 -133 -363 -160 -435 -71 -191 -74 -201 -66 -220 6 -16 53 -17
824 -11 449 3 850 10 891 14 64 6 72 9 58 20 -12 10 -21 11 -36 2 -17 -9 -27
-5 -61 26 -26 23 -40 45 -40 60 0 14 -7 27 -15 30 -8 4 -15 11 -15 17 0 6 -17
38 -38 71 -42 69 -48 79 -94 156 -17 30 -36 58 -41 61 -5 4 3 39 18 80 15 41
34 91 41 112 8 20 18 45 23 55 5 9 21 51 36 92 15 41 33 89 40 105 14 33 40
100 49 128 5 16 63 17 1082 15 l1076 -3 30 -95 c17 -52 37 -109 44 -127 8 -17
14 -36 14 -43 0 -7 6 -26 14 -43 7 -18 30 -83 49 -144 l37 -113 -35 -57 c-19
-32 -35 -64 -35 -70 0 -7 -4 -13 -8 -13 -5 0 -16 -15 -25 -32 -10 -18 -28 -51
-42 -73 -14 -22 -28 -46 -32 -54 -4 -8 -21 -37 -40 -65 -20 -31 -33 -63 -33
-83 l0 -33 243 0 c152 0 247 -4 253 -10 12 -12 887 -6 1229 7 l200 8 3 25 c2
14 -10 61 -26 105 -49 135 -284 758 -377 1000 -44 116 -117 308 -175 465 -16
41 -54 143 -85 225 -31 83 -78 209 -105 280 -27 72 -58 153 -68 180 -11 28
-49 129 -85 225 -36 96 -91 243 -122 325 -32 83 -70 184 -85 225 -61 164 -132
353 -190 505 -34 88 -92 243 -130 345 -38 102 -96 257 -130 345 -33 88 -76
203 -95 255 -20 52 -39 104 -44 115 -5 11 -18 45 -30 75 -11 30 -49 134 -85
230 -36 96 -93 247 -126 335 -34 88 -65 171 -70 185 -4 14 -29 79 -55 145 -25
66 -51 135 -56 152 -6 18 -19 52 -29 75 -24 52 -25 78 -5 78 8 0 15 -6 15 -12
0 -7 6 -25 14 -40 8 -14 19 -43 26 -65 7 -21 16 -42 20 -48 4 -5 10 -23 14
-40 4 -16 16 -48 27 -72 10 -23 19 -46 19 -51 0 -12 80 -224 89 -237 4 -5 14
-30 21 -55 8 -25 20 -56 27 -70 7 -14 13 -29 13 -33 0 -5 6 -23 14 -40 8 -18
26 -68 41 -112 15 -44 34 -94 41 -112 8 -17 14 -34 14 -38 0 -4 6 -21 14 -38
27 -64 96 -243 96 -251 0 -4 6 -22 14 -39 8 -18 20 -50 26 -72 7 -22 16 -44
20 -50 4 -5 13 -26 18 -45 15 -49 40 -120 56 -155 44 -97 54 -123 61 -152 3
-18 11 -35 16 -38 5 -4 9 -15 9 -26 0 -10 9 -38 20 -62 21 -45 45 -111 62
-167 5 -19 14 -39 18 -45 4 -5 13 -27 20 -48 7 -22 18 -51 26 -65 8 -15 14
-35 14 -45 0 -11 6 -31 14 -45 22 -40 66 -158 66 -176 0 -8 4 -17 9 -20 5 -3
12 -18 15 -33 6 -26 42 -119 72 -190 8 -17 14 -36 14 -43 0 -7 6 -24 13 -38
27 -53 46 -98 57 -137 6 -22 15 -49 20 -60 5 -11 14 -38 21 -60 6 -22 15 -44
19 -50 3 -5 19 -46 34 -90 15 -44 34 -95 42 -112 8 -18 20 -48 28 -65 8 -18
29 -76 46 -128 18 -52 36 -99 41 -105 5 -5 9 -16 9 -25 0 -8 6 -27 14 -41 7
-14 16 -38 20 -54 4 -16 16 -48 27 -72 10 -23 19 -45 19 -48 0 -4 6 -21 14
-38 7 -18 21 -53 31 -79 14 -41 20 -48 43 -47 20 0 41 16 82 65 54 64 131 150
220 247 l46 49 69 -103 c38 -57 73 -105 77 -107 4 -2 8 -8 8 -12 0 -5 41 -69
91 -142 50 -73 129 -191 177 -263 48 -71 89 -132 92 -135 3 -3 34 -48 69 -100
35 -52 109 -162 165 -243 56 -82 112 -166 126 -187 14 -22 84 -125 155 -231
72 -106 133 -198 137 -204 4 -6 -20 -53 -52 -103 -33 -51 -60 -94 -60 -97 0
-2 -17 -30 -39 -62 -111 -168 -117 -179 -100 -200 10 -12 79 -14 426 -12 228
1 416 -1 418 -3 2 -2 7 -23 11 -46 6 -40 4 -44 -34 -79 -22 -21 -43 -49 -47
-63 -5 -14 -17 -39 -29 -56 -72 -106 -136 -206 -136 -212 0 -4 -18 -29 -40
-56 -22 -26 -45 -66 -51 -89 -6 -22 -25 -58 -43 -79 -36 -42 -52 -70 -61 -111
-3 -15 -20 -42 -37 -60 -17 -18 -37 -46 -44 -64 -8 -17 -18 -34 -23 -37 -14
-9 -4293 -8 -4302 1 -4 4 -19 33 -35 63 -15 30 -44 84 -65 120 -72 127 -82
145 -97 175 -8 17 -37 67 -64 113 -26 45 -48 85 -48 89 0 4 -29 57 -65 118
-62 106 -121 174 -172 198 -12 5 -25 19 -29 30 -6 18 -11 19 -78 11 -120 -13
-198 -12 -248 5 -39 13 -53 13 -79 4 -21 -8 -38 -9 -50 -3 -11 6 -295 10 -738
10 -680 0 -721 1 -721 18 0 9 7 26 15 36 8 11 15 26 15 33 0 8 9 33 19 56 11
24 23 56 27 72 4 16 13 40 20 54 8 14 14 31 14 38 0 6 6 24 14 40 15 29 28 61
71 178 14 39 32 84 40 100 7 17 19 47 25 68 7 22 18 51 26 65 8 15 14 35 14
44 0 9 4 19 9 22 5 3 12 18 16 33 3 16 13 42 20 58 7 17 19 47 25 68 7 22 18
51 26 65 8 15 14 32 14 39 0 6 7 24 15 40 20 39 65 159 65 175 0 7 7 22 15 32
8 11 15 26 15 34 0 8 6 28 14 45 8 18 27 64 41 102 15 39 33 84 40 100 7 17
16 41 20 55 3 14 15 44 26 67 10 24 19 52 19 63 0 11 4 20 9 20 5 0 12 12 16
28 3 15 12 41 19 57 7 17 26 64 41 105 15 41 33 86 40 100 7 14 16 40 20 57 3
18 11 35 16 38 5 4 9 15 9 25 0 21 -27 38 -112 70 -49 18 -56 25 -83 77 -16
32 -50 94 -75 138 -25 44 -49 88 -53 98 -4 10 -37 71 -74 135 -106 183 -105
179 -77 232 13 25 26 52 30 60 5 8 32 56 61 107 29 51 58 103 63 115 6 13 14
30 20 38 18 28 122 214 131 235 5 11 25 47 44 80 19 33 49 87 66 120 17 33 48
89 69 125 40 69 71 126 128 230 20 36 46 83 59 105 12 22 27 49 32 60 5 12 32
60 60 107 28 48 56 97 62 110 5 13 21 41 34 63 13 22 40 72 60 110 20 39 47
88 61 110 13 22 36 65 51 95 16 30 30 57 33 60 9 8 54 88 96 170 21 41 43 82
50 90 6 8 31 51 54 95 23 44 50 94 60 110 9 17 34 62 55 100 21 39 57 104 81
146 24 42 44 80 44 84 0 5 6 16 14 24 12 15 57 94 100 179 19 37 28 35 44 -5z
m5852 -1113 c-18 -34 -11 -50 48 -105 32 -29 67 -71 78 -92 30 -55 48 -87 54
-93 3 -3 18 -32 34 -65 16 -33 60 -113 98 -178 37 -65 68 -120 68 -121 0 -2
17 -33 39 -67 21 -35 41 -74 45 -86 4 -13 12 -23 17 -23 5 0 9 -8 9 -17 0 -10
16 -43 35 -73 19 -30 41 -68 49 -85 8 -16 33 -61 55 -100 23 -38 57 -101 77
-140 19 -38 46 -88 58 -110 12 -22 35 -62 51 -90 15 -27 42 -75 60 -105 18
-30 53 -93 78 -140 25 -47 55 -103 67 -125 l22 -40 -70 -130 c-38 -71 -78
-146 -88 -165 -11 -19 -21 -37 -24 -40 -3 -3 -20 -34 -39 -70 -18 -36 -36 -67
-40 -70 -4 -3 -26 -42 -48 -87 -23 -44 -69 -129 -102 -187 -34 -58 -61 -108
-61 -112 0 -4 -6 -15 -14 -23 -21 -25 -66 -110 -66 -126 0 -8 -4 -15 -9 -15
-5 0 -13 -10 -18 -23 -4 -13 -39 -77 -76 -143 -46 -80 -78 -125 -98 -136 -23
-13 -29 -24 -29 -49 0 -20 -9 -43 -23 -58 -13 -15 -31 -57 -42 -100 -18 -72
-18 -75 0 -110 11 -20 24 -43 31 -51 13 -17 56 -92 91 -159 21 -41 110 -179
123 -191 3 -3 31 -43 63 -90 32 -47 80 -116 107 -155 27 -38 54 -77 59 -85 6
-8 46 -64 89 -125 43 -60 81 -118 85 -127 3 -10 11 -18 17 -18 5 0 10 -5 10
-11 0 -9 24 -45 63 -94 37 -47 97 -137 97 -145 0 -5 4 -10 8 -10 8 0 32 -43
32 -55 0 -3 -326 -5 -725 -5 l-726 0 -42 23 -42 22 680 5 c374 3 681 6 683 8
1 1 2 10 2 19 0 19 -6 28 -180 273 -69 97 -159 225 -200 284 -41 58 -130 184
-198 279 -68 95 -130 183 -140 197 -9 14 -33 48 -53 75 -20 28 -72 102 -117
165 -45 63 -110 154 -144 203 -35 48 -106 148 -158 222 -52 75 -125 177 -161
228 -36 51 -132 187 -214 302 -82 116 -212 299 -289 408 -78 109 -184 259
-236 333 -52 74 -116 164 -142 201 -27 36 -48 69 -48 74 0 5 37 51 83 102 45
51 107 122 137 157 30 35 60 69 67 76 7 6 47 52 90 100 42 49 93 107 114 129
20 22 50 56 65 75 16 19 31 37 34 40 7 5 171 190 369 415 68 77 137 156 155
176 17 19 60 68 96 109 36 41 87 98 115 128 46 50 50 52 57 32 4 -12 3 -30 -2
-40z m-4995 -625 c7 -16 26 -68 41 -115 16 -47 32 -87 35 -90 4 -3 10 -21 14
-40 4 -19 12 -46 18 -60 18 -44 57 -154 67 -185 12 -42 39 -116 50 -140 5 -11
23 -60 39 -110 17 -49 42 -121 57 -160 14 -38 30 -83 36 -100 5 -16 16 -44 24
-62 8 -17 14 -39 14 -50 0 -10 6 -27 13 -38 7 -11 19 -40 26 -65 6 -25 16 -54
21 -65 4 -11 21 -56 36 -100 15 -44 30 -84 34 -90 4 -5 13 -32 20 -60 7 -27
16 -54 21 -60 4 -5 12 -26 18 -45 23 -75 89 -261 95 -267 3 -4 6 -12 6 -20 0
-11 -127 -13 -721 -13 -683 0 -721 1 -714 18 4 9 14 35 22 57 8 22 20 54 28
70 7 17 17 44 21 60 4 17 10 35 14 40 4 6 10 24 14 40 4 17 13 44 21 60 7 17
25 66 40 110 15 44 33 94 40 110 7 17 31 84 55 150 23 66 57 158 75 205 17 47
51 139 75 205 23 66 49 134 56 152 8 17 14 36 14 43 0 7 7 26 15 43 16 34 80
211 96 264 5 18 16 45 24 60 8 15 15 34 15 40 0 11 65 188 93 253 10 23 11 23
15 5 2 -11 10 -33 17 -50z"/>
</g>
</svg>
